<svg xmlns="http://www.w3.org/2000/svg" viewBox="0 0 400 200" width="100%" height="100%">
  <defs>
    <linearGradient id="bgGrad" x1="0%" y1="0%" x2="100%" y2="100%">
      <stop offset="0%" stop-color="#0f172a" />
      <stop offset="100%" stop-color="#1e293b" />
    </linearGradient>
    <linearGradient id="goldGrad" x1="0%" y1="0%" x2="100%" y2="100%">
      <stop offset="0%" stop-color="#fbbf24" />
      <stop offset="100%" stop-color="#d97706" />
    </linearGradient>
  </defs>
  <rect width="100%" height="100%" fill="url(#bgGrad)" rx="8" />
  <rect x="10" y="10" width="380" height="180" fill="none" stroke="url(#goldGrad)" stroke-width="1" stroke-dasharray="8 4" rx="6" opacity="0.3" />
  <g transform="translate(200, 80)">
    <circle r="35" fill="url(#goldGrad)" opacity="0.1" />
    <circle r="28" fill="url(#goldGrad)" />
    <path d="M-10,20 L-18,45 L0,35 L18,45 L10,20 Z" fill="url(#goldGrad)" opacity="0.8" />
    <path d="M-5,20 L-8,48 L3,38 L14,48 L7,20 Z" fill="url(#goldGrad)" opacity="0.9" />
    <polygon points="0,-12 3,-3 12,-3 5,2 8,11 0,6 -8,11 -5,2 -12,-3 -3,-3" fill="#ffffff" />
  </g>
  <text x="200" y="150" font-family="'Inter', sans-serif" font-size="14" fill="#94a3b8" text-anchor="middle" letter-spacing="4" font-weight="600">CERTIFICACIÓN</text>
  <text x="200" y="170" font-family="'Inter', sans-serif" font-size="10" fill="#64748b" text-anchor="middle" letter-spacing="1">FORMACIÓN PROFESIONAL</text>
</svg>
